<svg xmlns="http://www.w3.org/2000/svg" width="36" height="36" viewBox="0 0 36 36"><defs><clipPath id="z6tha"><path fill="#fff" d="M18 0c9.941 0 18 8.058 18 18 0 9.94-8.059 18-18 18S0 27.94 0 18C0 8.057 8.059 0 18 0z"/></clipPath></defs><g><g><path fill="#02922d" d="M18.5 12a6.5 6.5 0 1 1 0 13 6.5 6.5 0 0 1 0-13z"/></g><g opacity=".26"><path fill="none" stroke="#fff" stroke-miterlimit="20" stroke-width="2" d="M18 0c9.941 0 18 8.058 18 18 0 9.94-8.059 18-18 18S0 27.94 0 18C0 8.057 8.059 0 18 0z" clip-path="url(&quot;#z6tha&quot;)"/></g></g></svg>